<svg width="813" height="393" viewBox="0 0 813 393" fill="none" xmlns="http://www.w3.org/2000/svg">
<g filter="url(#filter0_d_2_2938)">
<mask id="path-1-outside-1_2_2938" maskUnits="userSpaceOnUse" x="4" y="0" width="805" height="188" fill="black">
<rect fill="white" x="4" width="805" height="188"/>
<path d="M266.987 86.0903L270.557 74.6007L278.886 87.0894L292.57 88.588L283.051 98.0795L285.43 115.064L270.557 105.573L256.278 114.065L261.633 98.0795L246.76 86.0903H266.987Z"/>
<path fill-rule="evenodd" clip-rule="evenodd" d="M324.101 90.5862L353.848 100.078V124.056C359.996 130.883 375.504 140.441 388.354 124.056C390.139 118.561 395.494 83.5926 377.051 22.6476C414.175 22.248 420.679 22.4811 419.291 22.6476H424.646C433.371 67.7735 438.329 160.723 388.354 171.513C379.43 174.51 337.19 179.506 311.013 135.046L309.228 132.548C304.468 137.211 290.071 146.636 270.557 147.035C266.987 147.035 215.228 143.538 206.899 91.5853C204.043 95.5817 193.81 107.238 189.051 112.566L223.557 152.031L194.405 174.51L164.063 130.051L165.848 171.014L125.987 171.513L130.152 77.598L122.418 73.6016V15.654C151.768 12.8232 210.944 19.1508 212.848 67.1075C214.633 68.1065 228.316 42.6296 263.418 43.6287C265.797 43.6287 318.152 44.6278 324.101 90.5862ZM270.557 74.6007L266.987 86.0903H246.76L261.633 98.0795L256.278 114.065L270.557 105.573L285.43 115.064L283.051 98.0795L292.57 88.588L278.886 87.0894L270.557 74.6007ZM164.063 86.0903V62.6115C171.797 62.6115 172.987 65.1093 172.987 74.6007C172.987 82.2043 169.418 86.0903 164.063 86.0903Z"/>
<path fill-rule="evenodd" clip-rule="evenodd" d="M71.8481 186H27.8228L18.8987 79.5962L7 72.6025L11.7595 2.66569C45.6709 -0.831146 113.256 7.9609 117.063 65.1093C117.063 69.1056 117.063 106.072 64.7089 134.546C70.4203 173.711 71.8481 185.167 71.8481 186ZM61.1392 79.5962V49.6233C64.7089 49.6233 70.0633 50.1145 70.0633 65.1093C70.0633 77.598 65.3038 80.0957 61.1392 79.5962Z"/>
<path d="M450.823 16.1535L436.544 67.1075L447.253 74.6007L440.114 174.51L521.62 162.521V127.053L492.468 135.046L494.253 124.056L512.101 118.061V102.076L494.253 103.575L496.038 86.0903L529.354 91.5853L535.304 22.6476L450.823 16.1535Z"/>
<path d="M692.962 16.1535L689.392 63.6106L730.443 64.6097L720.924 174.011H772.089V72.6025L803.025 74.6007L806 28.1427L692.962 16.1535Z"/>
<path d="M682.253 65.6088L641.797 72.6025C628.312 61.1129 598.962 48.0247 589.443 87.5889C589.443 89.5871 593.608 128.052 637.038 114.065C671.782 127.253 681.262 130.55 681.658 130.55C673.329 147.701 648.342 175.509 618.595 174.011C610.266 174.011 542.443 167.517 536.494 87.5889C536.494 84.0921 537.684 23.1472 602.532 16.1535C606.101 16.1535 654.886 13.1562 682.253 65.6088Z"/>
</mask>
<path d="M266.987 86.0903L270.557 74.6007L278.886 87.0894L292.57 88.588L283.051 98.0795L285.43 115.064L270.557 105.573L256.278 114.065L261.633 98.0795L246.76 86.0903H266.987Z" fill="#FF0000"/>
<path fill-rule="evenodd" clip-rule="evenodd" d="M324.101 90.5862L353.848 100.078V124.056C359.996 130.883 375.504 140.441 388.354 124.056C390.139 118.561 395.494 83.5926 377.051 22.6476C414.175 22.248 420.679 22.4811 419.291 22.6476H424.646C433.371 67.7735 438.329 160.723 388.354 171.513C379.43 174.51 337.19 179.506 311.013 135.046L309.228 132.548C304.468 137.211 290.071 146.636 270.557 147.035C266.987 147.035 215.228 143.538 206.899 91.5853C204.043 95.5817 193.81 107.238 189.051 112.566L223.557 152.031L194.405 174.51L164.063 130.051L165.848 171.014L125.987 171.513L130.152 77.598L122.418 73.6016V15.654C151.768 12.8232 210.944 19.1508 212.848 67.1075C214.633 68.1065 228.316 42.6296 263.418 43.6287C265.797 43.6287 318.152 44.6278 324.101 90.5862ZM270.557 74.6007L266.987 86.0903H246.76L261.633 98.0795L256.278 114.065L270.557 105.573L285.43 115.064L283.051 98.0795L292.57 88.588L278.886 87.0894L270.557 74.6007ZM164.063 86.0903V62.6115C171.797 62.6115 172.987 65.1093 172.987 74.6007C172.987 82.2043 169.418 86.0903 164.063 86.0903Z" fill="#FF7A00"/>
<path fill-rule="evenodd" clip-rule="evenodd" d="M71.8481 186H27.8228L18.8987 79.5962L7 72.6025L11.7595 2.66569C45.6709 -0.831146 113.256 7.9609 117.063 65.1093C117.063 69.1056 117.063 106.072 64.7089 134.546C70.4203 173.711 71.8481 185.167 71.8481 186ZM61.1392 79.5962V49.6233C64.7089 49.6233 70.0633 50.1145 70.0633 65.1093C70.0633 77.598 65.3038 80.0957 61.1392 79.5962Z" fill="#FF7A00"/>
<path d="M450.823 16.1535L436.544 67.1075L447.253 74.6007L440.114 174.51L521.62 162.521V127.053L492.468 135.046L494.253 124.056L512.101 118.061V102.076L494.253 103.575L496.038 86.0903L529.354 91.5853L535.304 22.6476L450.823 16.1535Z" fill="#FF7A00"/>
<path d="M692.962 16.1535L689.392 63.6106L730.443 64.6097L720.924 174.011H772.089V72.6025L803.025 74.6007L806 28.1427L692.962 16.1535Z" fill="#FF7A00"/>
<path d="M682.253 65.6088L641.797 72.6025C628.312 61.1129 598.962 48.0247 589.443 87.5889C589.443 89.5871 593.608 128.052 637.038 114.065C671.782 127.253 681.262 130.55 681.658 130.55C673.329 147.701 648.342 175.509 618.595 174.011C610.266 174.011 542.443 167.517 536.494 87.5889C536.494 84.0921 537.684 23.1472 602.532 16.1535C606.101 16.1535 654.886 13.1562 682.253 65.6088Z" fill="#FF7A00"/>
<path d="M266.987 86.0903V87.0903H267.724L267.942 86.387L266.987 86.0903ZM270.557 74.6007L271.389 74.0458L270.225 72.3L269.602 74.304L270.557 74.6007ZM278.886 87.0894L278.054 87.6442L278.313 88.0326L278.777 88.0834L278.886 87.0894ZM292.57 88.588L293.276 89.2962L294.755 87.8214L292.678 87.594L292.57 88.588ZM283.051 98.0795L282.345 97.3713L281.991 97.7238L282.06 98.2182L283.051 98.0795ZM285.43 115.064L284.892 115.907L286.722 117.075L286.421 114.925L285.43 115.064ZM270.557 105.573L271.095 104.73L270.575 104.398L270.046 104.713L270.557 105.573ZM256.278 114.065L255.33 113.747L254.475 116.301L256.79 114.924L256.278 114.065ZM261.633 98.0795L262.581 98.3971L262.802 97.7375L262.26 97.3009L261.633 98.0795ZM246.76 86.0903V85.0903H243.926L246.132 86.8689L246.76 86.0903ZM267.942 86.387L271.512 74.8974L269.602 74.304L266.032 85.7936L267.942 86.387ZM269.725 75.1555L278.054 87.6442L279.718 86.5345L271.389 74.0458L269.725 75.1555ZM278.777 88.0834L292.461 89.5821L292.678 87.594L278.995 86.0953L278.777 88.0834ZM291.864 87.8799L282.345 97.3713L283.757 98.7876L293.276 89.2962L291.864 87.8799ZM282.06 98.2182L284.44 115.203L286.421 114.925L284.041 97.9407L282.06 98.2182ZM285.968 114.221L271.095 104.73L270.019 106.416L284.892 115.907L285.968 114.221ZM270.046 104.713L255.767 113.206L256.79 114.924L271.068 106.432L270.046 104.713ZM257.227 114.383L262.581 98.3971L260.685 97.7618L255.33 113.747L257.227 114.383ZM262.26 97.3009L247.387 85.3117L246.132 86.8689L261.005 98.858L262.26 97.3009ZM246.76 87.0903H266.987V85.0903H246.76V87.0903ZM324.101 90.5862L322.118 90.843L322.281 92.1048L323.493 92.4916L324.101 90.5862ZM353.848 100.078H355.848V98.6165L354.456 98.1723L353.848 100.078ZM353.848 124.056H351.848V124.824L352.362 125.394L353.848 124.056ZM388.354 124.056L389.928 125.29L390.147 125.011L390.257 124.674L388.354 124.056ZM377.051 22.6476L377.029 20.6478L374.365 20.6764L375.136 23.2269L377.051 22.6476ZM419.291 22.6476L419.053 20.6619L419.291 24.6476V22.6476ZM424.646 22.6476L426.609 22.2679L426.296 20.6476H424.646V22.6476ZM388.354 171.513L387.932 169.558L387.823 169.582L387.718 169.617L388.354 171.513ZM311.013 135.046L312.736 134.031L312.691 133.955L312.64 133.883L311.013 135.046ZM450.823 16.1535L450.976 14.1594L449.34 14.0336L448.897 15.6138L450.823 16.1535ZM436.544 67.1075L434.618 66.5678L434.236 67.9332L435.398 68.7461L436.544 67.1075ZM447.253 74.6007L449.248 74.7432L449.329 73.6121L448.4 72.962L447.253 74.6007ZM440.114 174.51L438.119 174.368L437.942 176.851L440.405 176.489L440.114 174.51ZM521.62 162.521L521.911 164.5L523.62 164.249V162.521H521.62ZM521.62 127.053H523.62V124.431L521.091 125.124L521.62 127.053ZM492.468 135.046L490.494 134.725L489.995 137.798L492.997 136.975L492.468 135.046ZM494.253 124.056L493.616 122.16L492.472 122.544L492.279 123.735L494.253 124.056ZM512.101 118.061L512.738 119.957L514.101 119.499V118.061H512.101ZM512.101 102.076H514.101V99.9009L511.934 100.083L512.101 102.076ZM494.253 103.575L492.264 103.371L492.019 105.769L494.421 105.567L494.253 103.575ZM496.038 86.0903L496.363 84.117L494.264 83.7708L494.048 85.8872L496.038 86.0903ZM529.354 91.5853L529.029 93.5587L531.161 93.9104L531.347 91.7573L529.354 91.5853ZM535.304 22.6476L537.296 22.8196L537.47 20.8083L535.457 20.6535L535.304 22.6476ZM682.253 65.6088L682.594 67.5796L685.294 67.1128L684.026 64.6837L682.253 65.6088ZM641.797 72.6025L640.5 74.1249L641.214 74.733L642.138 74.5733L641.797 72.6025ZM589.443 87.5889L587.499 87.1211L587.443 87.3517V87.5889H589.443ZM637.038 114.065L637.748 112.195L637.092 111.946L636.425 112.161L637.038 114.065ZM681.658 130.55L683.457 131.424L684.853 128.55H681.658V130.55ZM618.595 174.011L618.696 172.013L618.645 172.011H618.595V174.011ZM536.494 87.5889H534.494V87.6633L534.499 87.7374L536.494 87.5889ZM602.532 16.1535V14.1535H602.424L602.317 14.165L602.532 16.1535ZM692.962 16.1535L693.173 14.1647L691.122 13.9472L690.968 16.0035L692.962 16.1535ZM689.392 63.6106L687.398 63.4606L687.24 65.5588L689.344 65.61L689.392 63.6106ZM730.443 64.6097L732.436 64.7831L732.62 62.6621L730.492 62.6103L730.443 64.6097ZM720.924 174.011L718.932 173.837L718.742 176.011H720.924V174.011ZM772.089 174.011V176.011H774.089V174.011H772.089ZM772.089 72.6025L772.218 70.6067L770.089 70.4691V72.6025H772.089ZM803.025 74.6007L802.896 76.5965L804.893 76.7255L805.021 74.7285L803.025 74.6007ZM806 28.1427L807.996 28.2705L808.118 26.3561L806.211 26.1538L806 28.1427ZM61.1392 49.6233V47.6233H59.1392V49.6233H61.1392ZM61.1392 79.5962H59.1392V81.3706L60.9011 81.5819L61.1392 79.5962ZM71.8481 186V188H73.8481V186H71.8481ZM27.8228 186L25.8298 186.167L25.9835 188H27.8228V186ZM18.8987 79.5962L20.8917 79.429L20.8052 78.3968L19.9122 77.8719L18.8987 79.5962ZM7 72.6025L5.00462 72.4667L4.92067 73.7002L5.98656 74.3267L7 72.6025ZM11.7595 2.66569L11.5543 0.676243L9.8785 0.849051L9.76411 2.5299L11.7595 2.66569ZM117.063 65.1093H119.063V65.0427L119.059 64.9763L117.063 65.1093ZM64.7089 134.546L63.7533 132.79L62.5286 133.456L62.7298 134.835L64.7089 134.546ZM309.228 132.548L310.855 131.386L309.497 129.485L307.828 131.12L309.228 132.548ZM270.557 147.035V149.035H270.577L270.598 149.035L270.557 147.035ZM206.899 91.5853L208.874 91.2687L208.103 86.4605L205.271 90.4225L206.899 91.5853ZM189.051 112.566L187.559 111.234L186.382 112.552L187.545 113.883L189.051 112.566ZM223.557 152.031L224.778 153.615L226.463 152.316L225.063 150.714L223.557 152.031ZM194.405 174.51L192.753 175.638L193.948 177.388L195.626 176.094L194.405 174.51ZM164.063 130.051L165.715 128.923L161.76 123.127L162.065 130.138L164.063 130.051ZM165.848 171.014L165.873 173.013L167.936 172.988L167.846 170.926L165.848 171.014ZM125.987 171.513L123.989 171.424L123.896 173.539L126.012 173.513L125.987 171.513ZM130.152 77.598L132.15 77.6866L132.207 76.4085L131.07 75.8212L130.152 77.598ZM122.418 73.6016H120.418V74.8194L121.5 75.3784L122.418 73.6016ZM122.418 15.654L122.226 13.6632L120.418 13.8376V15.654H122.418ZM212.848 67.1075L210.85 67.1868L210.894 68.3057L211.871 68.8526L212.848 67.1075ZM263.418 43.6287L263.361 45.6279L263.389 45.6287H263.418V43.6287ZM164.063 62.6115V60.6115H162.063V62.6115H164.063ZM164.063 86.0903H162.063V88.0903H164.063V86.0903ZM323.493 92.4916L353.24 101.983L354.456 98.1723L324.709 88.6809L323.493 92.4916ZM351.848 100.078V124.056H355.848V100.078H351.848ZM352.362 125.394C355.621 129.014 361.398 133.423 368.212 134.725C371.657 135.383 375.378 135.247 379.129 133.793C382.876 132.341 386.534 129.619 389.928 125.29L386.781 122.822C383.75 126.686 380.65 128.914 377.683 130.064C374.72 131.213 371.77 131.333 368.963 130.796C363.274 129.709 358.223 125.925 355.334 122.718L352.362 125.394ZM390.257 124.674C391.254 121.602 393.035 111.215 392.286 94.0584C391.535 76.8377 388.233 52.6942 378.965 22.0683L375.136 23.2269C384.311 53.546 387.554 77.3591 388.29 94.2327C389.029 111.17 387.239 121.015 386.452 123.438L390.257 124.674ZM377.072 24.6475C395.632 24.4477 406.526 24.4062 412.603 24.4353C415.648 24.4499 417.462 24.4821 418.419 24.5197C418.958 24.5408 419.088 24.5601 419.037 24.5507C419.016 24.5468 418.961 24.5364 418.889 24.5159C418.846 24.5038 418.655 24.4505 418.435 24.3198C418.387 24.2918 417.349 23.7065 417.47 22.4206C417.526 21.8236 417.827 21.4238 418.018 21.2251C418.208 21.0276 418.395 20.9154 418.489 20.8635C418.679 20.7591 418.84 20.7131 418.882 20.701C418.946 20.6826 418.995 20.6727 419.015 20.6688C419.056 20.6609 419.074 20.6594 419.053 20.6619L419.529 24.6334C419.595 24.6255 419.685 24.6135 419.78 24.595C419.788 24.5934 420.099 24.5434 420.417 24.3681C420.517 24.3135 420.708 24.1986 420.9 23.9985C421.094 23.7971 421.396 23.3945 421.452 22.7948C421.574 21.5036 420.531 20.9129 420.475 20.8794C420.246 20.7434 420.04 20.6847 419.978 20.6671C419.887 20.6412 419.808 20.6254 419.758 20.6162C419.472 20.5638 419.031 20.5406 418.576 20.5227C417.544 20.4822 415.671 20.4499 412.623 20.4354C406.514 20.4061 395.594 20.4479 377.029 20.6478L377.072 24.6475ZM419.291 24.6476H424.646V20.6476H419.291V24.6476ZM422.682 23.0273C427.02 45.4633 430.409 79.7543 426.529 109.699C424.589 124.675 420.848 138.419 414.611 149.033C408.401 159.601 399.763 167.004 387.932 169.558L388.777 173.468C401.934 170.627 411.416 162.365 418.059 151.06C424.676 139.801 428.52 125.465 430.496 110.213C434.449 79.7045 430.997 44.9579 426.609 22.2679L422.682 23.0273ZM387.718 169.617C383.622 170.993 371.229 172.975 356.663 169.142C342.189 165.333 325.539 155.776 312.736 134.031L309.289 136.061C322.664 158.776 340.222 168.951 355.644 173.01C370.973 177.044 384.163 175.031 388.991 173.409L387.718 169.617ZM448.897 15.6138L434.618 66.5678L438.47 67.6471L452.749 16.6932L448.897 15.6138ZM435.398 68.7461L446.107 76.2394L448.4 72.962L437.691 65.4688L435.398 68.7461ZM445.258 74.4581L438.119 174.368L442.109 174.653L449.248 74.7432L445.258 74.4581ZM440.405 176.489L521.911 164.5L521.329 160.542L439.823 172.532L440.405 176.489ZM523.62 162.521V127.053H519.62V162.521H523.62ZM521.091 125.124L491.94 133.117L492.997 136.975L522.149 128.982L521.091 125.124ZM494.443 135.367L496.227 124.377L492.279 123.735L490.494 134.725L494.443 135.367ZM494.89 125.952L512.738 119.957L511.465 116.165L493.616 122.16L494.89 125.952ZM514.101 118.061V102.076H510.101V118.061H514.101ZM511.934 100.083L494.086 101.582L494.421 105.567L512.269 104.069L511.934 100.083ZM496.243 103.778L498.028 86.2934L494.048 85.8872L492.264 103.371L496.243 103.778ZM495.713 88.0636L529.029 93.5587L529.68 89.612L496.363 84.117L495.713 88.0636ZM531.347 91.7573L537.296 22.8196L533.311 22.4757L527.362 91.4134L531.347 91.7573ZM535.457 20.6535L450.976 14.1594L450.669 18.1476L535.151 24.6418L535.457 20.6535ZM681.912 63.638L641.457 70.6317L642.138 74.5733L682.594 67.5796L681.912 63.638ZM643.095 71.0801C636.204 65.2096 625.023 58.697 614.086 58.9511C608.528 59.0802 603.05 60.9622 598.353 65.5024C593.693 70.007 589.934 76.9976 587.499 87.1211L591.388 88.0568C593.711 78.3982 597.191 72.1882 601.133 68.3785C605.038 64.6043 609.525 63.0581 614.179 62.95C623.669 62.7295 633.905 68.5058 640.5 74.1249L643.095 71.0801ZM587.443 87.5889C587.443 88.3285 587.747 91.301 588.852 95.0953C589.968 98.9238 591.943 103.743 595.39 108.068C598.856 112.417 603.805 116.254 610.781 118.047C617.736 119.835 626.535 119.549 637.651 115.969L636.425 112.161C625.826 115.575 617.818 115.726 611.777 114.173C605.758 112.626 601.522 109.344 598.518 105.575C595.495 101.782 593.715 97.4849 592.693 93.9763C592.183 92.2286 591.868 90.6967 591.681 89.5514C591.587 88.9789 591.526 88.5075 591.489 88.1586C591.471 87.984 591.459 87.8439 591.451 87.7402C591.443 87.6275 591.443 87.5829 591.443 87.5889H587.443ZM636.328 115.935C653.704 122.53 664.768 126.655 671.542 129.131C674.927 130.369 677.247 131.198 678.75 131.719C679.5 131.978 680.058 132.165 680.447 132.289C680.639 132.35 680.807 132.401 680.944 132.439C681.011 132.457 681.09 132.477 681.17 132.495C681.198 132.501 681.408 132.55 681.658 132.55V128.55C681.8 128.55 681.906 128.566 681.935 128.571C681.978 128.577 682.008 128.584 682.018 128.586C682.037 128.59 682.036 128.59 682.003 128.581C681.94 128.564 681.83 128.531 681.657 128.476C681.317 128.368 680.797 128.194 680.06 127.939C678.588 127.429 676.292 126.609 672.915 125.375C666.164 122.906 655.116 118.788 637.748 112.195L636.328 115.935ZM679.859 129.676C675.824 137.985 667.681 148.993 656.9 157.72C646.118 166.446 632.906 172.729 618.696 172.013L618.494 176.008C634.031 176.791 648.185 169.919 659.417 160.829C670.648 151.738 679.163 140.267 683.457 131.424L679.859 129.676ZM618.595 172.011C614.689 172.011 596.045 170.439 577.706 159.073C559.487 147.782 541.414 126.741 538.488 87.4405L534.499 87.7374C537.523 128.365 556.336 150.535 575.598 162.473C594.74 174.336 614.172 176.011 618.595 176.011V172.011ZM538.494 87.5889C538.494 85.9747 538.781 70.2293 546.978 54.0881C555.114 38.0677 571.075 21.5576 602.746 18.142L602.317 14.165C569.14 17.7431 552.083 35.2022 543.411 52.2769C534.802 69.2309 534.494 85.7063 534.494 87.5889H538.494ZM602.532 18.1535C606.07 18.1535 653.695 15.1968 680.48 66.534L684.026 64.6837C656.077 11.1156 606.132 14.1535 602.532 14.1535V18.1535ZM690.968 16.0035L687.398 63.4606L691.387 63.7606L694.956 16.3035L690.968 16.0035ZM689.344 65.61L730.394 66.6091L730.492 62.6103L689.441 61.6112L689.344 65.61ZM728.451 64.4363L718.932 173.837L722.917 174.184L732.436 64.7831L728.451 64.4363ZM720.924 176.011H772.089V172.011H720.924V176.011ZM774.089 174.011V72.6025H770.089V174.011H774.089ZM771.96 74.5983L802.896 76.5965L803.154 72.6048L772.218 70.6067L771.96 74.5983ZM805.021 74.7285L807.996 28.2705L804.004 28.0149L801.029 74.4729L805.021 74.7285ZM806.211 26.1538L693.173 14.1647L692.751 18.1424L805.789 30.1315L806.211 26.1538ZM59.1392 49.6233V79.5962H63.1392V49.6233H59.1392ZM71.8481 184H27.8228V188H71.8481V184ZM29.8158 185.833L20.8917 79.429L16.9057 79.7633L25.8298 186.167L29.8158 185.833ZM19.9122 77.8719L8.01344 70.8783L5.98656 74.3267L17.8853 81.3204L19.9122 77.8719ZM8.99538 72.7383L13.7549 2.80149L9.76411 2.5299L5.00462 72.4667L8.99538 72.7383ZM11.9646 4.65514C28.6928 2.93019 53.7153 4.25011 74.9384 12.9947C96.0779 21.7048 113.229 37.651 115.068 65.2422L119.059 64.9763C117.09 35.4191 98.5449 18.3951 76.4622 9.29634C54.4632 0.232039 28.7376 -1.09564 11.5543 0.676243L11.9646 4.65514ZM115.063 65.1093C115.063 66.9453 115.082 76.8451 108.724 89.7657C102.374 102.673 89.5897 118.738 63.7533 132.79L65.6644 136.303C92.1824 121.881 105.576 105.226 112.314 91.5316C119.045 77.8513 119.063 67.2696 119.063 65.1093H115.063ZM62.7298 134.835C65.585 154.414 67.3689 167.063 68.4385 174.918C68.9735 178.846 69.3292 181.571 69.5509 183.362C69.6618 184.259 69.7384 184.915 69.7869 185.369C69.8412 185.877 69.8481 186.026 69.8481 186H73.8481C73.8481 185.633 73.7337 184.593 73.5206 182.871C73.2961 181.057 72.9379 178.314 72.402 174.378C71.3299 166.505 69.5441 153.843 66.6879 134.258L62.7298 134.835ZM312.64 133.883L310.855 131.386L307.601 133.711L309.385 136.209L312.64 133.883ZM307.828 131.12C303.378 135.479 289.45 144.648 270.516 145.036L270.598 149.035C290.692 148.623 305.558 138.943 310.627 133.977L307.828 131.12ZM270.557 145.035C268.997 145.035 255.497 144.2 241.422 137.012C227.442 129.871 212.917 116.491 208.874 91.2687L204.924 91.9019C209.209 118.632 224.729 132.977 239.603 140.574C254.383 148.122 268.547 149.035 270.557 149.035V145.035ZM205.271 90.4225C202.495 94.3079 192.355 105.865 187.559 111.234L190.542 113.899C195.265 108.611 205.591 96.8556 208.526 92.7481L205.271 90.4225ZM187.545 113.883L222.051 153.347L225.063 150.714L190.556 111.25L187.545 113.883ZM222.336 150.447L193.184 172.927L195.626 176.094L224.778 153.615L222.336 150.447ZM196.057 173.383L165.715 128.923L162.411 131.178L192.753 175.638L196.057 173.383ZM162.065 130.138L163.85 171.101L167.846 170.926L166.061 129.964L162.065 130.138ZM165.823 169.014L125.962 169.513L126.012 173.513L165.873 173.013L165.823 169.014ZM127.985 171.602L132.15 77.6866L128.154 77.5094L123.989 171.424L127.985 171.602ZM131.07 75.8212L123.336 71.8248L121.5 75.3784L129.234 79.3748L131.07 75.8212ZM124.418 73.6016V15.654H120.418V73.6016H124.418ZM122.61 17.6447C137.091 16.248 158.886 17.1261 177.205 24.2011C195.446 31.2461 209.94 44.271 210.85 67.1868L214.847 67.0281C213.852 41.9873 197.807 27.87 178.646 20.4697C159.563 13.0995 137.095 12.2291 122.226 13.6632L122.61 17.6447ZM211.871 68.8526C212.488 69.198 213.104 69.1684 213.514 69.0708C213.897 68.9796 214.202 68.8095 214.397 68.6853C214.789 68.4361 215.168 68.0905 215.491 67.7754C216.149 67.1329 217.033 66.1514 218.029 65.0841C220.081 62.8839 222.967 59.9184 226.851 56.9589C234.594 51.0595 246.354 45.1438 263.361 45.6279L263.475 41.6295C245.381 41.1145 232.748 47.4376 224.427 53.7772C220.28 56.9371 217.216 60.0912 215.104 62.3557C214.017 63.5207 213.266 64.3579 212.697 64.9135C212.563 65.0439 212.457 65.1417 212.373 65.2129C212.286 65.2874 212.248 65.3117 212.252 65.3096C212.255 65.3072 212.283 65.29 212.331 65.2673C212.378 65.2454 212.466 65.2085 212.588 65.1795C212.839 65.1197 213.32 65.0793 213.825 65.3623L211.871 68.8526ZM263.418 45.6287C264.491 45.6287 277.866 45.8707 291.64 51.7142C305.337 57.5254 319.261 68.7775 322.118 90.843L326.085 90.3295C322.992 66.4365 307.764 54.2099 293.202 48.0319C278.716 41.8862 264.724 41.6287 263.418 41.6287V45.6287ZM162.063 62.6115V86.0903H166.063V62.6115H162.063ZM164.063 88.0903C167.263 88.0903 170.096 86.9058 172.085 84.4581C174.031 82.0641 174.987 78.6869 174.987 74.6007H170.987C170.987 78.1182 170.159 80.4857 168.981 81.9356C167.847 83.3318 166.218 84.0903 164.063 84.0903V88.0903ZM174.987 74.6007C174.987 72.2072 174.914 70.1506 174.659 68.4301C174.405 66.7145 173.949 65.1668 173.066 63.9019C171.181 61.2031 167.984 60.6115 164.063 60.6115V64.6115C167.876 64.6115 169.141 65.2688 169.786 66.1917C170.167 66.7377 170.492 67.594 170.702 69.0162C170.912 70.4336 170.987 72.2485 170.987 74.6007H174.987ZM60.9011 81.5819C63.504 81.8941 66.4831 81.2551 68.7204 78.478C70.852 75.8323 72.0633 71.5351 72.0633 65.1093H68.0633C68.0633 71.1721 66.8949 74.3682 65.6055 75.9686C64.422 77.4377 62.9391 77.7977 61.3774 77.6104L60.9011 81.5819ZM72.0633 65.1093C72.0633 57.4837 70.7241 52.9762 68.4311 50.4105C66.0268 47.7201 62.9896 47.6233 61.1392 47.6233V51.6233C62.8585 51.6233 64.2833 51.772 65.4486 53.0759C66.7253 54.5045 68.0633 57.74 68.0633 65.1093H72.0633Z" fill="black" mask="url(#path-1-outside-1_2_2938)"/>
</g>
<g filter="url(#filter1_d_2_2938)">
<mask id="path-3-outside-2_2_2938" maskUnits="userSpaceOnUse" x="62" y="201" width="675" height="184" fill="black">
<rect fill="white" x="62" y="201" width="675" height="184"/>
<path d="M65 211.5L70.5 382.5L103.5 379L105 341L140.5 381L179 352.5L125 306.5L182.5 208.5L135 206.5L108.5 265V204L65 211.5Z"/>
<path fill-rule="evenodd" clip-rule="evenodd" d="M209.5 230L245.5 228L275 382.5H237.5L235.5 338L223 341V381.5L190.5 379.5L209.5 230ZM233.5 307.5L227.5 283L225 307.5H233.5Z"/>
<path d="M283.5 233.5L319.5 227.5L321 280L343.5 232.5L382.5 233.5L334 316.5L379.5 357L348.5 380.5L317 343.5V379.5L288 382.5L283.5 233.5Z"/>
<path fill-rule="evenodd" clip-rule="evenodd" d="M411 230L445.5 227.5L476 382.5H439L436.5 336.5L425 341V381H391L411 230ZM435 305.5L428.5 285.5L426.5 308L435 305.5Z"/>
<path fill-rule="evenodd" clip-rule="evenodd" d="M481.5 239V288.5L487.5 290.5L485 380L512.5 379.5V341L537.5 381L562.5 360.5L532.5 321C540 313.667 556.4 288.7 556 265.5C556.667 253.333 543.5 229.714 516.5 231C506 231.5 487.9 233.4 481.5 239ZM510 298V273C519.5 271 521 278.5 521 285C521 295.8 513.5 298.333 510 298Z"/>
<path fill-rule="evenodd" clip-rule="evenodd" d="M603.5 255.5C587.167 257.833 554.5 271.6 554.5 308C556.167 323.667 567.9 354.9 601.5 354.5C617.5 352.833 649.7 340.1 650.5 302.5C650.833 296.833 651.3 283.2 648.5 280L669.5 278L664.5 382.5H701V275L731 273.5L734 225L639.5 240.5V266C632.667 261.317 621 254.5 603.5 255.5ZM608 295.5L602.5 280L598 297L581 298L594 308L589 324.5L601.5 314.5L615 324.5L613.5 306.5L623 295.5H608Z"/>
<path d="M602.5 280L608 295.5H623L613.5 306.5L615 324.5L601.5 314.5L589 324.5L594 308L581 298L598 297L602.5 280Z"/>
</mask>
<path d="M65 211.5L70.5 382.5L103.5 379L105 341L140.5 381L179 352.5L125 306.5L182.5 208.5L135 206.5L108.5 265V204L65 211.5Z" fill="#FF7A00"/>
<path fill-rule="evenodd" clip-rule="evenodd" d="M209.5 230L245.5 228L275 382.5H237.5L235.5 338L223 341V381.5L190.5 379.5L209.5 230ZM233.5 307.5L227.5 283L225 307.5H233.5Z" fill="#FF7A00"/>
<path d="M283.5 233.5L319.5 227.5L321 280L343.5 232.5L382.5 233.5L334 316.5L379.5 357L348.5 380.5L317 343.5V379.5L288 382.5L283.5 233.5Z" fill="#FF7A00"/>
<path fill-rule="evenodd" clip-rule="evenodd" d="M411 230L445.5 227.5L476 382.5H439L436.5 336.5L425 341V381H391L411 230ZM435 305.5L428.5 285.5L426.5 308L435 305.5Z" fill="#FF7A00"/>
<path fill-rule="evenodd" clip-rule="evenodd" d="M481.5 239V288.5L487.5 290.5L485 380L512.5 379.5V341L537.5 381L562.5 360.5L532.5 321C540 313.667 556.4 288.7 556 265.5C556.667 253.333 543.5 229.714 516.5 231C506 231.5 487.9 233.4 481.5 239ZM510 298V273C519.5 271 521 278.5 521 285C521 295.8 513.5 298.333 510 298Z" fill="#FF7A00"/>
<path fill-rule="evenodd" clip-rule="evenodd" d="M603.5 255.5C587.167 257.833 554.5 271.6 554.5 308C556.167 323.667 567.9 354.9 601.5 354.5C617.5 352.833 649.7 340.1 650.5 302.5C650.833 296.833 651.3 283.2 648.5 280L669.5 278L664.5 382.5H701V275L731 273.5L734 225L639.5 240.5V266C632.667 261.317 621 254.5 603.5 255.5ZM608 295.5L602.5 280L598 297L581 298L594 308L589 324.5L601.5 314.5L615 324.5L613.5 306.5L623 295.5H608Z" fill="#FF7A00"/>
<path d="M602.5 280L608 295.5H623L613.5 306.5L615 324.5L601.5 314.5L589 324.5L594 308L581 298L598 297L602.5 280Z" fill="#FF0000"/>
<path d="M602.5 280L603.442 279.666L602.361 276.618L601.533 279.744L602.5 280ZM608 295.5L607.058 295.834L607.294 296.5H608V295.5ZM623 295.5L623.757 296.154L625.185 294.5H623V295.5ZM613.5 306.5L612.743 305.846L612.469 306.164L612.503 306.583L613.5 306.5ZM615 324.5L614.405 325.304L616.18 326.619L615.997 324.417L615 324.5ZM601.5 314.5L602.095 313.696L601.477 313.238L600.875 313.719L601.5 314.5ZM589 324.5L588.043 324.21L587.108 327.294L589.625 325.281L589 324.5ZM594 308L594.957 308.29L595.157 307.629L594.61 307.207L594 308ZM581 298L580.941 297.002L578.267 297.159L580.39 298.793L581 298ZM598 297L598.059 297.998L598.781 297.956L598.967 297.256L598 297ZM601.558 280.334L607.058 295.834L608.942 295.166L603.442 279.666L601.558 280.334ZM608 296.5H623V294.5H608V296.5ZM622.243 294.846L612.743 305.846L614.257 307.154L623.757 296.154L622.243 294.846ZM612.503 306.583L614.003 324.583L615.997 324.417L614.497 306.417L612.503 306.583ZM615.595 323.696L602.095 313.696L600.905 315.304L614.405 325.304L615.595 323.696ZM600.875 313.719L588.375 323.719L589.625 325.281L602.125 315.281L600.875 313.719ZM589.957 324.79L594.957 308.29L593.043 307.71L588.043 324.21L589.957 324.79ZM594.61 307.207L581.61 297.207L580.39 298.793L593.39 308.793L594.61 307.207ZM581.059 298.998L598.059 297.998L597.941 296.002L580.941 297.002L581.059 298.998ZM598.967 297.256L603.467 280.256L601.533 279.744L597.033 296.744L598.967 297.256ZM65 211.5L64.6602 209.529L62.9451 209.825L63.001 211.564L65 211.5ZM70.5 382.5L68.501 382.564L68.5702 384.716L70.7109 384.489L70.5 382.5ZM103.5 379L103.711 380.989L105.43 380.806L105.498 379.079L103.5 379ZM105 341L106.496 339.672L103.198 335.956L103.002 340.921L105 341ZM140.5 381L139.004 382.328L140.219 383.696L141.69 382.607L140.5 381ZM179 352.5L180.19 354.107L182.213 352.61L180.297 350.978L179 352.5ZM125 306.5L123.275 305.488L122.426 306.935L123.703 308.022L125 306.5ZM182.5 208.5L184.225 209.512L185.909 206.642L182.584 206.502L182.5 208.5ZM135 206.5L135.084 204.502L133.735 204.445L133.178 205.675L135 206.5ZM108.5 265H106.5L110.322 265.825L108.5 265ZM108.5 204H110.5V201.626L108.16 202.029L108.5 204ZM209.5 230L209.389 228.003L207.726 228.095L207.516 229.748L209.5 230ZM245.5 228L247.465 227.625L247.136 225.906L245.389 226.003L245.5 228ZM275 382.5V384.5H277.418L276.965 382.125L275 382.5ZM237.5 382.5L235.502 382.59L235.588 384.5H237.5V382.5ZM235.5 338L237.498 337.91L237.389 335.49L235.033 336.055L235.5 338ZM223 341L222.533 339.055L221 339.423V341H223ZM223 381.5L222.877 383.496L225 383.627V381.5H223ZM190.5 379.5L188.516 379.248L188.247 381.365L190.377 381.496L190.5 379.5ZM227.5 283L229.443 282.524L225.51 282.797L227.5 283ZM233.5 307.5V309.5H236.049L235.443 307.024L233.5 307.5ZM225 307.5L223.01 307.297L222.786 309.5H225V307.5ZM283.5 233.5L283.171 231.527L281.448 231.814L281.501 233.56L283.5 233.5ZM319.5 227.5L321.499 227.443L321.434 225.15L319.171 225.527L319.5 227.5ZM321 280L319.001 280.057L322.807 280.856L321 280ZM343.5 232.5L343.551 230.501L342.25 230.467L341.693 231.644L343.5 232.5ZM382.5 233.5L384.227 234.509L385.934 231.587L382.551 231.501L382.5 233.5ZM334 316.5L332.273 315.491L331.447 316.905L332.67 317.994L334 316.5ZM379.5 357L380.708 358.594L382.647 357.124L380.83 355.506L379.5 357ZM348.5 380.5L346.977 381.796L348.202 383.235L349.708 382.094L348.5 380.5ZM317 343.5L318.523 342.204L315 338.066V343.5H317ZM317 379.5L317.206 381.489L319 381.304V379.5H317ZM288 382.5L286.001 382.56L286.066 384.711L288.206 384.489L288 382.5ZM411 230L410.855 228.005L409.231 228.123L409.017 229.737L411 230ZM445.5 227.5L447.462 227.114L447.121 225.377L445.355 225.505L445.5 227.5ZM476 382.5V384.5H478.432L477.962 382.114L476 382.5ZM439 382.5L437.003 382.609L437.106 384.5H439V382.5ZM436.5 336.5L438.497 336.391L438.347 333.63L435.771 334.638L436.5 336.5ZM425 341L424.271 339.138L423 339.635V341H425ZM425 381V383H427V381H425ZM391 381L389.017 380.737L388.718 383H391V381ZM428.5 285.5L430.402 284.882L426.508 285.323L428.5 285.5ZM435 305.5L435.564 307.419L437.538 306.838L436.902 304.882L435 305.5ZM426.5 308L424.508 307.823L424.248 310.747L427.064 309.919L426.5 308ZM481.5 239L480.183 237.495L479.5 238.092V239H481.5ZM481.5 288.5H479.5V289.942L480.868 290.397L481.5 288.5ZM487.5 290.5L489.499 290.556L489.541 289.072L488.132 288.603L487.5 290.5ZM485 380L483.001 379.944L482.942 382.038L485.036 382L485 380ZM512.5 379.5L512.536 381.5L514.5 381.464V379.5H512.5ZM512.5 341L514.196 339.94L510.5 334.026V341H512.5ZM537.5 381L535.804 382.06L537.009 383.989L538.768 382.547L537.5 381ZM562.5 360.5L563.768 362.047L565.258 360.825L564.093 359.29L562.5 360.5ZM532.5 321L531.102 319.57L529.84 320.804L530.907 322.21L532.5 321ZM556 265.5L554.003 265.391L553.999 265.462L554 265.534L556 265.5ZM516.5 231L516.405 229.002L516.5 231ZM603.5 255.5L603.386 253.503L603.301 253.508L603.217 253.52L603.5 255.5ZM554.5 308H552.5V308.106L552.511 308.212L554.5 308ZM601.5 354.5L601.524 356.5L601.616 356.499L601.707 356.489L601.5 354.5ZM650.5 302.5L648.503 302.383L648.501 302.42L648.5 302.457L650.5 302.5ZM648.5 280L648.31 278.009L644.424 278.379L646.995 281.317L648.5 280ZM669.5 278L671.498 278.096L671.608 275.79L669.31 276.009L669.5 278ZM664.5 382.5L662.502 382.404L662.402 384.5H664.5V382.5ZM701 382.5V384.5H703V382.5H701ZM701 275L700.9 273.002L699 273.098V275H701ZM731 273.5L731.1 275.498L732.886 275.408L732.996 273.623L731 273.5ZM734 225L735.996 225.123L736.151 222.62L733.676 223.026L734 225ZM639.5 240.5L639.176 238.526L637.5 238.801V240.5H639.5ZM639.5 266L638.369 267.65L641.5 269.795V266H639.5ZM510 273L509.588 271.043L508 271.377V273H510ZM510 298H508V299.819L509.81 299.991L510 298ZM63.001 211.564L68.501 382.564L72.499 382.436L66.999 211.436L63.001 211.564ZM70.7109 384.489L103.711 380.989L103.289 377.011L70.2891 380.511L70.7109 384.489ZM105.498 379.079L106.998 341.079L103.002 340.921L101.502 378.921L105.498 379.079ZM103.504 342.328L139.004 382.328L141.996 379.672L106.496 339.672L103.504 342.328ZM141.69 382.607L180.19 354.107L177.81 350.893L139.31 379.393L141.69 382.607ZM180.297 350.978L126.297 304.978L123.703 308.022L177.703 354.022L180.297 350.978ZM126.725 307.512L184.225 209.512L180.775 207.488L123.275 305.488L126.725 307.512ZM182.584 206.502L135.084 204.502L134.916 208.498L182.416 210.498L182.584 206.502ZM133.178 205.675L106.678 264.175L110.322 265.825L136.822 207.325L133.178 205.675ZM110.5 265V204H106.5V265H110.5ZM108.16 202.029L64.6602 209.529L65.3398 213.471L108.84 205.971L108.16 202.029ZM209.611 231.997L245.611 229.997L245.389 226.003L209.389 228.003L209.611 231.997ZM243.535 228.375L273.035 382.875L276.965 382.125L247.465 227.625L243.535 228.375ZM275 380.5H237.5V384.5H275V380.5ZM239.498 382.41L237.498 337.91L233.502 338.09L235.502 382.59L239.498 382.41ZM235.033 336.055L222.533 339.055L223.467 342.945L235.967 339.945L235.033 336.055ZM221 341V381.5H225V341H221ZM223.123 379.504L190.623 377.504L190.377 381.496L222.877 383.496L223.123 379.504ZM192.484 379.752L211.484 230.252L207.516 229.748L188.516 379.248L192.484 379.752ZM225.557 283.476L231.557 307.976L235.443 307.024L229.443 282.524L225.557 283.476ZM233.5 305.5H225V309.5H233.5V305.5ZM226.99 307.703L229.49 283.203L225.51 282.797L223.01 307.297L226.99 307.703ZM283.829 235.473L319.829 229.473L319.171 225.527L283.171 231.527L283.829 235.473ZM317.501 227.557L319.001 280.057L322.999 279.943L321.499 227.443L317.501 227.557ZM322.807 280.856L345.307 233.356L341.693 231.644L319.193 279.144L322.807 280.856ZM343.449 234.499L382.449 235.499L382.551 231.501L343.551 230.501L343.449 234.499ZM380.773 232.491L332.273 315.491L335.727 317.509L384.227 234.509L380.773 232.491ZM332.67 317.994L378.17 358.494L380.83 355.506L335.33 315.006L332.67 317.994ZM378.292 355.406L347.292 378.906L349.708 382.094L380.708 358.594L378.292 355.406ZM350.023 379.204L318.523 342.204L315.477 344.796L346.977 381.796L350.023 379.204ZM315 343.5V379.5H319V343.5H315ZM316.794 377.511L287.794 380.511L288.206 384.489L317.206 381.489L316.794 377.511ZM289.999 382.44L285.499 233.44L281.501 233.56L286.001 382.56L289.999 382.44ZM411.145 231.995L445.645 229.495L445.355 225.505L410.855 228.005L411.145 231.995ZM443.538 227.886L474.038 382.886L477.962 382.114L447.462 227.114L443.538 227.886ZM476 380.5H439V384.5H476V380.5ZM440.997 382.391L438.497 336.391L434.503 336.609L437.003 382.609L440.997 382.391ZM435.771 334.638L424.271 339.138L425.729 342.862L437.229 338.362L435.771 334.638ZM423 341V381H427V341H423ZM425 379H391V383H425V379ZM392.983 381.263L412.983 230.263L409.017 229.737L389.017 380.737L392.983 381.263ZM426.598 286.118L433.098 306.118L436.902 304.882L430.402 284.882L426.598 286.118ZM434.436 303.581L425.936 306.081L427.064 309.919L435.564 307.419L434.436 303.581ZM428.492 308.177L430.492 285.677L426.508 285.323L424.508 307.823L428.492 308.177ZM479.5 239V288.5H483.5V239H479.5ZM480.868 290.397L486.868 292.397L488.132 288.603L482.132 286.603L480.868 290.397ZM485.501 290.444L483.001 379.944L486.999 380.056L489.499 290.556L485.501 290.444ZM485.036 382L512.536 381.5L512.464 377.5L484.964 378L485.036 382ZM514.5 379.5V341H510.5V379.5H514.5ZM510.804 342.06L535.804 382.06L539.196 379.94L514.196 339.94L510.804 342.06ZM538.768 382.547L563.768 362.047L561.232 358.953L536.232 379.453L538.768 382.547ZM564.093 359.29L534.093 319.79L530.907 322.21L560.907 361.71L564.093 359.29ZM533.898 322.43C537.85 318.566 543.946 310.289 549.004 300.088C554.065 289.882 558.207 277.511 558 265.466L554 265.534C554.193 276.689 550.335 288.401 545.421 298.312C540.504 308.228 534.65 316.101 531.102 319.57L533.898 322.43ZM557.997 265.609C558.366 258.883 554.968 249.434 548.107 241.862C541.17 234.207 530.569 228.328 516.405 229.002L516.595 232.998C529.431 232.387 538.914 237.674 545.143 244.548C551.449 251.507 554.301 259.95 554.003 265.391L557.997 265.609ZM516.405 229.002C511.104 229.255 503.855 229.861 497.096 231.121C493.716 231.751 490.418 232.552 487.527 233.572C484.664 234.581 482.06 235.853 480.183 237.495L482.817 240.505C484.14 239.347 486.198 238.281 488.857 237.344C491.488 236.416 494.571 235.661 497.829 235.054C504.345 233.839 511.396 233.245 516.595 232.998L516.405 229.002ZM603.217 253.52C594.761 254.728 582.154 258.87 571.615 267.422C561.011 276.026 552.5 289.109 552.5 308H556.5C556.5 290.491 564.322 278.491 574.135 270.528C584.013 262.513 595.905 258.605 603.783 257.48L603.217 253.52ZM552.511 308.212C553.374 316.323 556.824 328.415 564.429 338.481C572.092 348.622 583.992 356.709 601.524 356.5L601.476 352.5C585.408 352.691 574.642 345.362 567.621 336.069C560.543 326.702 557.292 315.343 556.489 307.788L552.511 308.212ZM601.707 356.489C610.019 355.623 622.448 351.908 632.947 343.539C643.515 335.114 652.086 321.993 652.5 302.543L648.5 302.457C648.114 320.607 640.185 332.653 630.453 340.411C620.652 348.225 608.981 351.71 601.293 352.511L601.707 356.489ZM652.497 302.617C652.665 299.759 652.869 294.856 652.673 290.24C652.575 287.936 652.376 285.647 652.006 283.696C651.655 281.849 651.088 279.92 650.005 278.683L646.995 281.317C647.312 281.68 647.737 282.655 648.076 284.442C648.395 286.123 648.583 288.197 648.677 290.41C648.864 294.827 648.669 299.574 648.503 302.383L652.497 302.617ZM648.69 281.991L669.69 279.991L669.31 276.009L648.31 278.009L648.69 281.991ZM667.502 277.904L662.502 382.404L666.498 382.596L671.498 278.096L667.502 277.904ZM664.5 384.5H701V380.5H664.5V384.5ZM703 382.5V275H699V382.5H703ZM701.1 276.998L731.1 275.498L730.9 271.502L700.9 273.002L701.1 276.998ZM732.996 273.623L735.996 225.123L732.004 224.877L729.004 273.377L732.996 273.623ZM733.676 223.026L639.176 238.526L639.824 242.474L734.324 226.974L733.676 223.026ZM637.5 240.5V266H641.5V240.5H637.5ZM640.631 264.35C633.63 259.552 621.519 252.467 603.386 253.503L603.614 257.497C620.481 256.533 631.703 263.081 638.369 267.65L640.631 264.35ZM508 273V298H512V273H508ZM509.81 299.991C512.066 300.206 515.354 299.511 518.099 297.207C520.924 294.834 523 290.907 523 285H519C519 289.893 517.326 292.633 515.526 294.143C513.646 295.723 511.434 296.128 510.19 296.009L509.81 299.991ZM523 285C523 281.71 522.644 277.694 520.746 274.733C519.757 273.189 518.342 271.922 516.395 271.232C514.477 270.552 512.21 270.491 509.588 271.043L510.412 274.957C512.54 274.509 514.023 274.635 515.058 275.002C516.065 275.359 516.806 275.998 517.379 276.892C518.606 278.806 519 281.79 519 285H523Z" fill="black" mask="url(#path-3-outside-2_2_2938)"/>
</g>
<defs>
<filter id="filter0_d_2_2938" x="0.920898" y="0.00012207" width="811.198" height="196" filterUnits="userSpaceOnUse" color-interpolation-filters="sRGB">
<feFlood flood-opacity="0" result="BackgroundImageFix"/>
<feColorMatrix in="SourceAlpha" type="matrix" values="0 0 0 0 0 0 0 0 0 0 0 0 0 0 0 0 0 0 127 0" result="hardAlpha"/>
<feOffset dy="4"/>
<feGaussianBlur stdDeviation="2"/>
<feComposite in2="hardAlpha" operator="out"/>
<feColorMatrix type="matrix" values="0 0 0 0 0 0 0 0 0 0 0 0 0 0 0 0 0 0 1 0"/>
<feBlend mode="normal" in2="BackgroundImageFix" result="effect1_dropShadow_2_2938"/>
<feBlend mode="normal" in="SourceGraphic" in2="effect1_dropShadow_2_2938" result="shape"/>
</filter>
<filter id="filter1_d_2_2938" x="58.9453" y="201.626" width="681.206" height="191.09" filterUnits="userSpaceOnUse" color-interpolation-filters="sRGB">
<feFlood flood-opacity="0" result="BackgroundImageFix"/>
<feColorMatrix in="SourceAlpha" type="matrix" values="0 0 0 0 0 0 0 0 0 0 0 0 0 0 0 0 0 0 127 0" result="hardAlpha"/>
<feOffset dy="4"/>
<feGaussianBlur stdDeviation="2"/>
<feComposite in2="hardAlpha" operator="out"/>
<feColorMatrix type="matrix" values="0 0 0 0 0 0 0 0 0 0 0 0 0 0 0 0 0 0 1 0"/>
<feBlend mode="normal" in2="BackgroundImageFix" result="effect1_dropShadow_2_2938"/>
<feBlend mode="normal" in="SourceGraphic" in2="effect1_dropShadow_2_2938" result="shape"/>
</filter>
</defs>
</svg>
